# xmcd
#
# Track frame offsets: 
#        150
#        26024
#        50399
#        71902
#        95897
#        122157
#        148041
#        165589
#        194052
#        217986
#        240811
#
# Disc length: 3649 seconds
#
# Revision: 5
# Processed by: cddbd v1.5.1PL0 Copyright (c) Steve Scherf et al.
# Submitted via: ExactAudioCopy v0.95b3
#
DISCID=a20e3f0b
DTITLE=Joaqun Sabina y Cia - Nos sobran los motivos - Acústico1
DYEAR=2000
DGENRE=Blues
TTITLE0=Nos sobran los motivos
TTITLE1=Tan jóven y tan viejo
TTITLE2=Una canción para la Magdalena
TTITLE3=Ruido
TTITLE4=De Purísima y Oro
TTITLE5=Calle Melancolía
TTITLE6=Rosa de Lima
TTITLE7=Que se llama Soledad
TTITLE8=19 días y  500 noches
TTITLE9=Contigo
TTITLE10=Noches de boda - Y nos dieron las diez
EXTD=
EXTT0=
EXTT1=
EXTT2=
EXTT3=
EXTT4=
EXTT5=
EXTT6=
EXTT7=
EXTT8=
EXTT9=
EXTT10=
PLAYORDER=
